# xmcd
#
# Track frame offsets: 
#        150
#        14043
#        28583
#        42717
#        57403
#        71390
#        84620
#        97765
#        112606
#        126461
#        138780
#        152788
#        166478
#        180923
#        195063
#        209051
#
# Disc length: 2953 seconds
#
# Revision: 0
# Processed by: cddbd v1.5.2PL0 Copyright (c) Steve Scherf et al.
# Submitted via: ExactAudioCopyFreeDBPlugin 1.0
#
DISCID=d30b8710
DTITLE=ศิริจันทร์ อิศรางกูร ณ อยุธยา  - สาวชาวสวน
DYEAR=2005
DGENRE=Country
TTITLE0=สาวชาวสวน
TTITLE1=สาวคลองอ้อม
TTITLE2=สาวบางอ้อ
TTITLE3=สาวชาวนา
TTITLE4=สาวชาวไร่
TTITLE5=สวรรค์ชาวไร่
TTITLE6=เกลียดแสงจันทร์
TTITLE7=สมจิตร ตัดจินดา - แหวนประดับก้อย
TTITLE8=สมจิตร ตัดจินดา - รอยรักสลักใจ
TTITLE9=สมจิตร ตัดจินดา - จะเด็ดดอกไหน
TTITLE10=สมศรี ม่วงศรเขียว - ฟ้าบันดาล
TTITLE11=สมศรี ม่วงศรเขียว - ฉันนึกไม่ออก
TTITLE12=พรทิพา บูรณะกิจบำรุง - คนขี้จุ๊
TTITLE13=พรทิพา บูรณะกิจบำรุง - กรุงเทฯ บ่ใช่สวรรค์
TTITLE14=พรทิพา บูรณะกิจบำรุง - ลาแล้วบางกอก
TTITLE15=พรทิพา บูรณะกิจบำรุง - คุณแม่จ๋า
EXTD=
EXTT0=
EXTT1=
EXTT2=
EXTT3=
EXTT4=
EXTT5=
EXTT6=
EXTT7=
EXTT8=
EXTT9=
EXTT10=
EXTT11=
EXTT12=
EXTT13=
EXTT14=
EXTT15=
PLAYORDER=
